<mxfile host="app.diagrams.net" modified="2021-03-12T07:05:03.188Z" agent="5.0 (Windows NT 10.0; Win64; x64) AppleWebKit/537.36 (KHTML, like Gecko) Chrome/88.0.4324.190 Safari/537.36" etag="WCBt_VOVSiZVUWF1Inco" version="14.4.7" type="github" pages="3">
  <diagram id="_0V-7gAZ0lI6cZEbw2iz" name="Page-1">
    <mxGraphModel dx="1038" dy="492" grid="1" gridSize="10" guides="1" tooltips="1" connect="1" arrows="1" fold="1" page="1" pageScale="1" pageWidth="827" pageHeight="1169" math="0" shadow="0">
      <root>
        <mxCell id="0" />
        <mxCell id="1" parent="0" />
        <mxCell id="pTKMKGgpl9S-luBTWyot-12" style="edgeStyle=orthogonalEdgeStyle;rounded=0;orthogonalLoop=1;jettySize=auto;html=1;entryX=0;entryY=0.75;entryDx=0;entryDy=0;exitX=1;exitY=0.5;exitDx=0;exitDy=0;exitPerimeter=0;" edge="1" parent="1" source="pTKMKGgpl9S-luBTWyot-1" target="pTKMKGgpl9S-luBTWyot-2">
          <mxGeometry relative="1" as="geometry">
            <Array as="points">
              <mxPoint x="110" y="290" />
              <mxPoint x="160" y="290" />
              <mxPoint x="160" y="80" />
            </Array>
          </mxGeometry>
        </mxCell>
        <mxCell id="pTKMKGgpl9S-luBTWyot-13" style="edgeStyle=orthogonalEdgeStyle;rounded=0;orthogonalLoop=1;jettySize=auto;html=1;entryX=0;entryY=0.5;entryDx=0;entryDy=0;" edge="1" parent="1" source="pTKMKGgpl9S-luBTWyot-1" target="pTKMKGgpl9S-luBTWyot-5">
          <mxGeometry relative="1" as="geometry">
            <Array as="points">
              <mxPoint x="160" y="290" />
              <mxPoint x="160" y="130" />
            </Array>
          </mxGeometry>
        </mxCell>
        <mxCell id="pTKMKGgpl9S-luBTWyot-14" style="edgeStyle=orthogonalEdgeStyle;rounded=0;orthogonalLoop=1;jettySize=auto;html=1;entryX=0;entryY=0.5;entryDx=0;entryDy=0;" edge="1" parent="1" source="pTKMKGgpl9S-luBTWyot-1" target="pTKMKGgpl9S-luBTWyot-4">
          <mxGeometry relative="1" as="geometry">
            <Array as="points">
              <mxPoint x="160" y="290" />
              <mxPoint x="160" y="190" />
            </Array>
          </mxGeometry>
        </mxCell>
        <mxCell id="pTKMKGgpl9S-luBTWyot-15" style="edgeStyle=orthogonalEdgeStyle;rounded=0;orthogonalLoop=1;jettySize=auto;html=1;entryX=0;entryY=0.5;entryDx=0;entryDy=0;" edge="1" parent="1" source="pTKMKGgpl9S-luBTWyot-1" target="pTKMKGgpl9S-luBTWyot-6">
          <mxGeometry relative="1" as="geometry">
            <Array as="points">
              <mxPoint x="160" y="290" />
              <mxPoint x="160" y="250" />
            </Array>
          </mxGeometry>
        </mxCell>
        <mxCell id="pTKMKGgpl9S-luBTWyot-16" style="edgeStyle=orthogonalEdgeStyle;rounded=0;orthogonalLoop=1;jettySize=auto;html=1;" edge="1" parent="1" source="pTKMKGgpl9S-luBTWyot-1" target="pTKMKGgpl9S-luBTWyot-7">
          <mxGeometry relative="1" as="geometry">
            <Array as="points">
              <mxPoint x="160" y="290" />
              <mxPoint x="160" y="310" />
            </Array>
          </mxGeometry>
        </mxCell>
        <mxCell id="pTKMKGgpl9S-luBTWyot-17" style="edgeStyle=orthogonalEdgeStyle;rounded=0;orthogonalLoop=1;jettySize=auto;html=1;entryX=0;entryY=0.75;entryDx=0;entryDy=0;" edge="1" parent="1" source="pTKMKGgpl9S-luBTWyot-1" target="pTKMKGgpl9S-luBTWyot-8">
          <mxGeometry relative="1" as="geometry">
            <Array as="points">
              <mxPoint x="160" y="290" />
              <mxPoint x="160" y="380" />
            </Array>
          </mxGeometry>
        </mxCell>
        <mxCell id="pTKMKGgpl9S-luBTWyot-18" style="edgeStyle=orthogonalEdgeStyle;rounded=0;orthogonalLoop=1;jettySize=auto;html=1;entryX=0;entryY=0.5;entryDx=0;entryDy=0;" edge="1" parent="1" source="pTKMKGgpl9S-luBTWyot-1" target="pTKMKGgpl9S-luBTWyot-9">
          <mxGeometry relative="1" as="geometry">
            <Array as="points">
              <mxPoint x="160" y="290" />
              <mxPoint x="160" y="430" />
            </Array>
          </mxGeometry>
        </mxCell>
        <mxCell id="pTKMKGgpl9S-luBTWyot-20" style="edgeStyle=orthogonalEdgeStyle;rounded=0;orthogonalLoop=1;jettySize=auto;html=1;entryX=0;entryY=0.5;entryDx=0;entryDy=0;" edge="1" parent="1" source="pTKMKGgpl9S-luBTWyot-1" target="pTKMKGgpl9S-luBTWyot-10">
          <mxGeometry relative="1" as="geometry">
            <Array as="points">
              <mxPoint x="160" y="290" />
              <mxPoint x="160" y="490" />
            </Array>
          </mxGeometry>
        </mxCell>
        <mxCell id="pTKMKGgpl9S-luBTWyot-1" value="&lt;font style=&quot;font-size: 16px&quot;&gt;回归结果&lt;br&gt;2*16384*76&lt;/font&gt;" style="rounded=0;whiteSpace=wrap;html=1;fillColor=#dae8fc;strokeColor=#6c8ebf;" vertex="1" parent="1">
          <mxGeometry x="40" y="260" width="100" height="50" as="geometry" />
        </mxCell>
        <mxCell id="pTKMKGgpl9S-luBTWyot-31" style="edgeStyle=orthogonalEdgeStyle;rounded=0;orthogonalLoop=1;jettySize=auto;html=1;exitX=1;exitY=0.5;exitDx=0;exitDy=0;" edge="1" parent="1" source="pTKMKGgpl9S-luBTWyot-2" target="pTKMKGgpl9S-luBTWyot-30">
          <mxGeometry relative="1" as="geometry" />
        </mxCell>
        <mxCell id="pTKMKGgpl9S-luBTWyot-2" value="&lt;font style=&quot;font-size: 16px&quot;&gt;x_bin&lt;br&gt;2*16384*12&lt;/font&gt;" style="rounded=0;whiteSpace=wrap;html=1;fillColor=#dae8fc;strokeColor=#6c8ebf;" vertex="1" parent="1">
          <mxGeometry x="210" y="50" width="90" height="40" as="geometry" />
        </mxCell>
        <mxCell id="pTKMKGgpl9S-luBTWyot-40" style="edgeStyle=orthogonalEdgeStyle;rounded=0;orthogonalLoop=1;jettySize=auto;html=1;" edge="1" parent="1" source="pTKMKGgpl9S-luBTWyot-4" target="pTKMKGgpl9S-luBTWyot-37">
          <mxGeometry relative="1" as="geometry" />
        </mxCell>
        <mxCell id="pTKMKGgpl9S-luBTWyot-4" value="&lt;font style=&quot;font-size: 16px&quot;&gt;z_bin&lt;br&gt;2*16384*12&lt;/font&gt;" style="rounded=0;whiteSpace=wrap;html=1;fillColor=#dae8fc;strokeColor=#6c8ebf;" vertex="1" parent="1">
          <mxGeometry x="210" y="170" width="90" height="40" as="geometry" />
        </mxCell>
        <mxCell id="pTKMKGgpl9S-luBTWyot-35" style="edgeStyle=orthogonalEdgeStyle;rounded=0;orthogonalLoop=1;jettySize=auto;html=1;exitX=1;exitY=0.5;exitDx=0;exitDy=0;entryX=0;entryY=0.5;entryDx=0;entryDy=0;" edge="1" parent="1" source="pTKMKGgpl9S-luBTWyot-5" target="pTKMKGgpl9S-luBTWyot-33">
          <mxGeometry relative="1" as="geometry" />
        </mxCell>
        <mxCell id="pTKMKGgpl9S-luBTWyot-5" value="&lt;font style=&quot;font-size: 16px&quot;&gt;x_res&lt;br&gt;2*16384*12&lt;/font&gt;" style="rounded=0;whiteSpace=wrap;html=1;fillColor=#dae8fc;strokeColor=#6c8ebf;" vertex="1" parent="1">
          <mxGeometry x="210" y="110" width="90" height="40" as="geometry" />
        </mxCell>
        <mxCell id="pTKMKGgpl9S-luBTWyot-39" style="edgeStyle=orthogonalEdgeStyle;rounded=0;orthogonalLoop=1;jettySize=auto;html=1;entryX=0;entryY=0.5;entryDx=0;entryDy=0;" edge="1" parent="1" source="pTKMKGgpl9S-luBTWyot-6" target="pTKMKGgpl9S-luBTWyot-38">
          <mxGeometry relative="1" as="geometry" />
        </mxCell>
        <mxCell id="pTKMKGgpl9S-luBTWyot-6" value="&lt;font style=&quot;font-size: 16px&quot;&gt;z_res&lt;br&gt;2*16384*12&lt;/font&gt;" style="rounded=0;whiteSpace=wrap;html=1;fillColor=#dae8fc;strokeColor=#6c8ebf;" vertex="1" parent="1">
          <mxGeometry x="210" y="230" width="90" height="40" as="geometry" />
        </mxCell>
        <mxCell id="pTKMKGgpl9S-luBTWyot-58" style="edgeStyle=orthogonalEdgeStyle;rounded=0;orthogonalLoop=1;jettySize=auto;html=1;entryX=0;entryY=0.5;entryDx=0;entryDy=0;" edge="1" parent="1" source="pTKMKGgpl9S-luBTWyot-7" target="pTKMKGgpl9S-luBTWyot-43">
          <mxGeometry relative="1" as="geometry">
            <Array as="points">
              <mxPoint x="460" y="310" />
              <mxPoint x="460" y="150" />
            </Array>
          </mxGeometry>
        </mxCell>
        <mxCell id="pTKMKGgpl9S-luBTWyot-7" value="&lt;font style=&quot;font-size: 16px&quot;&gt;y_offset&lt;br&gt;2*16384&lt;/font&gt;" style="rounded=0;whiteSpace=wrap;html=1;fillColor=#dae8fc;strokeColor=#6c8ebf;" vertex="1" parent="1">
          <mxGeometry x="210" y="290" width="90" height="40" as="geometry" />
        </mxCell>
        <mxCell id="pTKMKGgpl9S-luBTWyot-73" style="edgeStyle=orthogonalEdgeStyle;rounded=0;orthogonalLoop=1;jettySize=auto;html=1;entryX=0;entryY=0.5;entryDx=0;entryDy=0;" edge="1" parent="1" source="pTKMKGgpl9S-luBTWyot-8" target="pTKMKGgpl9S-luBTWyot-59">
          <mxGeometry relative="1" as="geometry" />
        </mxCell>
        <mxCell id="pTKMKGgpl9S-luBTWyot-8" value="&lt;font style=&quot;font-size: 16px&quot;&gt;ry_bin&lt;br&gt;2*16384*12&lt;/font&gt;" style="rounded=0;whiteSpace=wrap;html=1;fillColor=#dae8fc;strokeColor=#6c8ebf;" vertex="1" parent="1">
          <mxGeometry x="210" y="350" width="90" height="40" as="geometry" />
        </mxCell>
        <mxCell id="pTKMKGgpl9S-luBTWyot-75" style="edgeStyle=orthogonalEdgeStyle;rounded=0;orthogonalLoop=1;jettySize=auto;html=1;exitX=1;exitY=0.5;exitDx=0;exitDy=0;" edge="1" parent="1" source="pTKMKGgpl9S-luBTWyot-9">
          <mxGeometry relative="1" as="geometry">
            <mxPoint x="350" y="430" as="targetPoint" />
          </mxGeometry>
        </mxCell>
        <mxCell id="pTKMKGgpl9S-luBTWyot-9" value="&lt;font style=&quot;font-size: 16px&quot;&gt;ry_res&lt;br&gt;2*16384*12&lt;/font&gt;" style="rounded=0;whiteSpace=wrap;html=1;fillColor=#dae8fc;strokeColor=#6c8ebf;" vertex="1" parent="1">
          <mxGeometry x="210" y="410" width="90" height="40" as="geometry" />
        </mxCell>
        <mxCell id="pTKMKGgpl9S-luBTWyot-82" style="edgeStyle=orthogonalEdgeStyle;rounded=0;orthogonalLoop=1;jettySize=auto;html=1;exitX=1;exitY=0.5;exitDx=0;exitDy=0;" edge="1" parent="1" source="pTKMKGgpl9S-luBTWyot-10" target="pTKMKGgpl9S-luBTWyot-81">
          <mxGeometry relative="1" as="geometry" />
        </mxCell>
        <mxCell id="pTKMKGgpl9S-luBTWyot-10" value="&lt;font style=&quot;font-size: 16px&quot;&gt;size_res&lt;br&gt;2*16384*3&lt;/font&gt;" style="rounded=0;whiteSpace=wrap;html=1;fillColor=#dae8fc;strokeColor=#6c8ebf;" vertex="1" parent="1">
          <mxGeometry x="210" y="470" width="90" height="40" as="geometry" />
        </mxCell>
        <mxCell id="pTKMKGgpl9S-luBTWyot-83" style="edgeStyle=orthogonalEdgeStyle;rounded=0;orthogonalLoop=1;jettySize=auto;html=1;exitX=1;exitY=0.5;exitDx=0;exitDy=0;entryX=0;entryY=0.5;entryDx=0;entryDy=0;" edge="1" parent="1" source="pTKMKGgpl9S-luBTWyot-11" target="pTKMKGgpl9S-luBTWyot-81">
          <mxGeometry relative="1" as="geometry" />
        </mxCell>
        <mxCell id="pTKMKGgpl9S-luBTWyot-11" value="&lt;font style=&quot;font-size: 16px&quot;&gt;anchor&lt;br&gt;3&lt;br&gt;&lt;/font&gt;" style="rounded=0;whiteSpace=wrap;html=1;fillColor=#dae8fc;strokeColor=#6c8ebf;" vertex="1" parent="1">
          <mxGeometry x="210" y="530" width="90" height="40" as="geometry" />
        </mxCell>
        <mxCell id="pTKMKGgpl9S-luBTWyot-21" value="[0:12]" style="text;html=1;align=center;verticalAlign=middle;resizable=0;points=[];autosize=1;" vertex="1" parent="1">
          <mxGeometry x="160" y="59" width="50" height="20" as="geometry" />
        </mxCell>
        <mxCell id="pTKMKGgpl9S-luBTWyot-22" value="[24:36]" style="text;html=1;align=center;verticalAlign=middle;resizable=0;points=[];autosize=1;" vertex="1" parent="1">
          <mxGeometry x="159" y="110" width="50" height="20" as="geometry" />
        </mxCell>
        <mxCell id="pTKMKGgpl9S-luBTWyot-23" value="[12:24]" style="text;html=1;align=center;verticalAlign=middle;resizable=0;points=[];autosize=1;" vertex="1" parent="1">
          <mxGeometry x="159" y="170" width="50" height="20" as="geometry" />
        </mxCell>
        <mxCell id="pTKMKGgpl9S-luBTWyot-24" value="[36:48]" style="text;html=1;align=center;verticalAlign=middle;resizable=0;points=[];autosize=1;" vertex="1" parent="1">
          <mxGeometry x="159" y="230" width="50" height="20" as="geometry" />
        </mxCell>
        <mxCell id="pTKMKGgpl9S-luBTWyot-25" value="[48:49]" style="text;html=1;align=center;verticalAlign=middle;resizable=0;points=[];autosize=1;" vertex="1" parent="1">
          <mxGeometry x="159" y="290" width="50" height="20" as="geometry" />
        </mxCell>
        <mxCell id="pTKMKGgpl9S-luBTWyot-26" value="[49:61]" style="text;html=1;align=center;verticalAlign=middle;resizable=0;points=[];autosize=1;" vertex="1" parent="1">
          <mxGeometry x="159" y="360" width="50" height="20" as="geometry" />
        </mxCell>
        <mxCell id="pTKMKGgpl9S-luBTWyot-44" style="edgeStyle=orthogonalEdgeStyle;rounded=0;orthogonalLoop=1;jettySize=auto;html=1;entryX=0;entryY=0.5;entryDx=0;entryDy=0;" edge="1" parent="1" source="pTKMKGgpl9S-luBTWyot-29" target="pTKMKGgpl9S-luBTWyot-43">
          <mxGeometry relative="1" as="geometry">
            <Array as="points">
              <mxPoint x="460" y="20" />
              <mxPoint x="460" y="150" />
            </Array>
          </mxGeometry>
        </mxCell>
        <mxCell id="pTKMKGgpl9S-luBTWyot-29" value="&lt;font style=&quot;font-size: 16px&quot;&gt;xyz&lt;br&gt;2*16384*3&lt;/font&gt;" style="rounded=0;whiteSpace=wrap;html=1;fillColor=#dae8fc;strokeColor=#6c8ebf;" vertex="1" parent="1">
          <mxGeometry x="350" width="90" height="40" as="geometry" />
        </mxCell>
        <mxCell id="pTKMKGgpl9S-luBTWyot-45" style="edgeStyle=orthogonalEdgeStyle;rounded=0;orthogonalLoop=1;jettySize=auto;html=1;entryX=0;entryY=0.5;entryDx=0;entryDy=0;" edge="1" parent="1" source="pTKMKGgpl9S-luBTWyot-30" target="pTKMKGgpl9S-luBTWyot-43">
          <mxGeometry relative="1" as="geometry">
            <Array as="points">
              <mxPoint x="460" y="70" />
              <mxPoint x="460" y="150" />
            </Array>
          </mxGeometry>
        </mxCell>
        <mxCell id="pTKMKGgpl9S-luBTWyot-61" style="edgeStyle=orthogonalEdgeStyle;rounded=0;orthogonalLoop=1;jettySize=auto;html=1;exitX=0.5;exitY=1;exitDx=0;exitDy=0;" edge="1" parent="1" source="pTKMKGgpl9S-luBTWyot-30">
          <mxGeometry relative="1" as="geometry">
            <mxPoint x="320" y="130" as="targetPoint" />
            <Array as="points">
              <mxPoint x="405" y="100" />
              <mxPoint x="320" y="100" />
            </Array>
          </mxGeometry>
        </mxCell>
        <mxCell id="pTKMKGgpl9S-luBTWyot-30" value="&lt;font style=&quot;font-size: 16px&quot;&gt;x_bin&lt;br&gt;2*16384&lt;/font&gt;" style="rounded=0;whiteSpace=wrap;html=1;fillColor=#dae8fc;strokeColor=#6c8ebf;" vertex="1" parent="1">
          <mxGeometry x="350" y="50" width="90" height="40" as="geometry" />
        </mxCell>
        <mxCell id="pTKMKGgpl9S-luBTWyot-32" value="argmax" style="text;html=1;align=center;verticalAlign=middle;resizable=0;points=[];autosize=1;" vertex="1" parent="1">
          <mxGeometry x="294" y="50" width="60" height="20" as="geometry" />
        </mxCell>
        <mxCell id="pTKMKGgpl9S-luBTWyot-52" style="edgeStyle=orthogonalEdgeStyle;rounded=0;orthogonalLoop=1;jettySize=auto;html=1;entryX=0;entryY=0.5;entryDx=0;entryDy=0;" edge="1" parent="1" source="pTKMKGgpl9S-luBTWyot-33" target="pTKMKGgpl9S-luBTWyot-43">
          <mxGeometry relative="1" as="geometry">
            <Array as="points">
              <mxPoint x="460" y="130" />
              <mxPoint x="460" y="150" />
            </Array>
          </mxGeometry>
        </mxCell>
        <mxCell id="pTKMKGgpl9S-luBTWyot-33" value="&lt;font style=&quot;font-size: 16px&quot;&gt;x_res&lt;br&gt;2*16384&lt;/font&gt;" style="rounded=0;whiteSpace=wrap;html=1;fillColor=#dae8fc;strokeColor=#6c8ebf;" vertex="1" parent="1">
          <mxGeometry x="350" y="110" width="90" height="40" as="geometry" />
        </mxCell>
        <mxCell id="pTKMKGgpl9S-luBTWyot-57" style="edgeStyle=orthogonalEdgeStyle;rounded=0;orthogonalLoop=1;jettySize=auto;html=1;entryX=0;entryY=0.5;entryDx=0;entryDy=0;" edge="1" parent="1" source="pTKMKGgpl9S-luBTWyot-37" target="pTKMKGgpl9S-luBTWyot-43">
          <mxGeometry relative="1" as="geometry">
            <Array as="points">
              <mxPoint x="460" y="190" />
              <mxPoint x="460" y="150" />
            </Array>
          </mxGeometry>
        </mxCell>
        <mxCell id="pTKMKGgpl9S-luBTWyot-68" style="edgeStyle=orthogonalEdgeStyle;rounded=0;orthogonalLoop=1;jettySize=auto;html=1;exitX=0.5;exitY=1;exitDx=0;exitDy=0;" edge="1" parent="1" source="pTKMKGgpl9S-luBTWyot-37">
          <mxGeometry relative="1" as="geometry">
            <mxPoint x="320" y="250" as="targetPoint" />
            <Array as="points">
              <mxPoint x="405" y="220" />
              <mxPoint x="320" y="220" />
            </Array>
          </mxGeometry>
        </mxCell>
        <mxCell id="pTKMKGgpl9S-luBTWyot-37" value="&lt;font style=&quot;font-size: 16px&quot;&gt;z_bin&lt;br&gt;2*16384&lt;/font&gt;" style="rounded=0;whiteSpace=wrap;html=1;fillColor=#dae8fc;strokeColor=#6c8ebf;" vertex="1" parent="1">
          <mxGeometry x="350" y="170" width="90" height="40" as="geometry" />
        </mxCell>
        <mxCell id="pTKMKGgpl9S-luBTWyot-55" style="edgeStyle=orthogonalEdgeStyle;rounded=0;orthogonalLoop=1;jettySize=auto;html=1;entryX=0;entryY=0.5;entryDx=0;entryDy=0;" edge="1" parent="1" source="pTKMKGgpl9S-luBTWyot-38" target="pTKMKGgpl9S-luBTWyot-43">
          <mxGeometry relative="1" as="geometry">
            <Array as="points">
              <mxPoint x="460" y="250" />
              <mxPoint x="460" y="150" />
            </Array>
          </mxGeometry>
        </mxCell>
        <mxCell id="pTKMKGgpl9S-luBTWyot-38" value="&lt;font style=&quot;font-size: 16px&quot;&gt;z_res&lt;br&gt;2*16384&lt;/font&gt;" style="rounded=0;whiteSpace=wrap;html=1;fillColor=#dae8fc;strokeColor=#6c8ebf;" vertex="1" parent="1">
          <mxGeometry x="350" y="230" width="90" height="40" as="geometry" />
        </mxCell>
        <mxCell id="pTKMKGgpl9S-luBTWyot-41" value="argmax" style="text;html=1;align=center;verticalAlign=middle;resizable=0;points=[];autosize=1;" vertex="1" parent="1">
          <mxGeometry x="293" y="170" width="60" height="20" as="geometry" />
        </mxCell>
        <mxCell id="pTKMKGgpl9S-luBTWyot-89" style="edgeStyle=orthogonalEdgeStyle;rounded=0;orthogonalLoop=1;jettySize=auto;html=1;exitX=1;exitY=0.5;exitDx=0;exitDy=0;entryX=0;entryY=0.5;entryDx=0;entryDy=0;" edge="1" parent="1" source="pTKMKGgpl9S-luBTWyot-43" target="pTKMKGgpl9S-luBTWyot-84">
          <mxGeometry relative="1" as="geometry">
            <Array as="points">
              <mxPoint x="580" y="150" />
              <mxPoint x="580" y="230" />
            </Array>
          </mxGeometry>
        </mxCell>
        <mxCell id="pTKMKGgpl9S-luBTWyot-43" value="&lt;font style=&quot;font-size: 16px&quot;&gt;box_center&lt;br&gt;2*16384*3&lt;/font&gt;" style="rounded=0;whiteSpace=wrap;html=1;fillColor=#dae8fc;strokeColor=#6c8ebf;" vertex="1" parent="1">
          <mxGeometry x="480" y="130" width="90" height="40" as="geometry" />
        </mxCell>
        <mxCell id="pTKMKGgpl9S-luBTWyot-79" style="edgeStyle=orthogonalEdgeStyle;rounded=0;orthogonalLoop=1;jettySize=auto;html=1;exitX=1;exitY=0.5;exitDx=0;exitDy=0;entryX=0;entryY=0.5;entryDx=0;entryDy=0;" edge="1" parent="1" source="pTKMKGgpl9S-luBTWyot-59" target="pTKMKGgpl9S-luBTWyot-78">
          <mxGeometry relative="1" as="geometry" />
        </mxCell>
        <mxCell id="pTKMKGgpl9S-luBTWyot-105" style="edgeStyle=orthogonalEdgeStyle;rounded=0;orthogonalLoop=1;jettySize=auto;html=1;exitX=0.5;exitY=1;exitDx=0;exitDy=0;" edge="1" parent="1" source="pTKMKGgpl9S-luBTWyot-59">
          <mxGeometry relative="1" as="geometry">
            <mxPoint x="320" y="430" as="targetPoint" />
            <Array as="points">
              <mxPoint x="395" y="400" />
              <mxPoint x="320" y="400" />
            </Array>
          </mxGeometry>
        </mxCell>
        <mxCell id="pTKMKGgpl9S-luBTWyot-59" value="&lt;font style=&quot;font-size: 16px&quot;&gt;ry_bin&lt;br&gt;2*16384&lt;/font&gt;" style="rounded=0;whiteSpace=wrap;html=1;fillColor=#dae8fc;strokeColor=#6c8ebf;" vertex="1" parent="1">
          <mxGeometry x="350" y="350" width="90" height="40" as="geometry" />
        </mxCell>
        <mxCell id="pTKMKGgpl9S-luBTWyot-80" style="edgeStyle=orthogonalEdgeStyle;rounded=0;orthogonalLoop=1;jettySize=auto;html=1;exitX=1;exitY=0.5;exitDx=0;exitDy=0;entryX=0;entryY=0.5;entryDx=0;entryDy=0;" edge="1" parent="1" source="pTKMKGgpl9S-luBTWyot-60" target="pTKMKGgpl9S-luBTWyot-78">
          <mxGeometry relative="1" as="geometry">
            <Array as="points">
              <mxPoint x="460" y="430" />
              <mxPoint x="460" y="370" />
            </Array>
          </mxGeometry>
        </mxCell>
        <mxCell id="pTKMKGgpl9S-luBTWyot-60" value="&lt;font style=&quot;font-size: 16px&quot;&gt;ry_res&lt;br&gt;2*1638&lt;/font&gt;" style="rounded=0;whiteSpace=wrap;html=1;fillColor=#dae8fc;strokeColor=#6c8ebf;" vertex="1" parent="1">
          <mxGeometry x="350" y="410" width="90" height="40" as="geometry" />
        </mxCell>
        <mxCell id="pTKMKGgpl9S-luBTWyot-64" value="[73:76]" style="text;html=1;align=center;verticalAlign=middle;resizable=0;points=[];autosize=1;" vertex="1" parent="1">
          <mxGeometry x="160" y="470" width="50" height="20" as="geometry" />
        </mxCell>
        <mxCell id="pTKMKGgpl9S-luBTWyot-65" value="[61:73]" style="text;html=1;align=center;verticalAlign=middle;resizable=0;points=[];autosize=1;" vertex="1" parent="1">
          <mxGeometry x="160" y="409" width="50" height="20" as="geometry" />
        </mxCell>
        <mxCell id="pTKMKGgpl9S-luBTWyot-71" style="edgeStyle=orthogonalEdgeStyle;rounded=0;orthogonalLoop=1;jettySize=auto;html=1;exitX=0.5;exitY=1;exitDx=0;exitDy=0;" edge="1" parent="1" source="pTKMKGgpl9S-luBTWyot-29" target="pTKMKGgpl9S-luBTWyot-29">
          <mxGeometry relative="1" as="geometry" />
        </mxCell>
        <mxCell id="pTKMKGgpl9S-luBTWyot-74" value="argmax" style="text;html=1;align=center;verticalAlign=middle;resizable=0;points=[];autosize=1;" vertex="1" parent="1">
          <mxGeometry x="294" y="350" width="60" height="20" as="geometry" />
        </mxCell>
        <mxCell id="pTKMKGgpl9S-luBTWyot-90" style="edgeStyle=orthogonalEdgeStyle;rounded=0;orthogonalLoop=1;jettySize=auto;html=1;" edge="1" parent="1" source="pTKMKGgpl9S-luBTWyot-78">
          <mxGeometry relative="1" as="geometry">
            <mxPoint x="610" y="230" as="targetPoint" />
            <Array as="points">
              <mxPoint x="580" y="230" />
            </Array>
          </mxGeometry>
        </mxCell>
        <mxCell id="pTKMKGgpl9S-luBTWyot-78" value="&lt;font style=&quot;font-size: 16px&quot;&gt;ry_angle&lt;br&gt;2*16384&lt;/font&gt;" style="rounded=0;whiteSpace=wrap;html=1;fillColor=#dae8fc;strokeColor=#6c8ebf;" vertex="1" parent="1">
          <mxGeometry x="480" y="350" width="90" height="40" as="geometry" />
        </mxCell>
        <mxCell id="pTKMKGgpl9S-luBTWyot-91" style="edgeStyle=orthogonalEdgeStyle;rounded=0;orthogonalLoop=1;jettySize=auto;html=1;exitX=1;exitY=0.5;exitDx=0;exitDy=0;entryX=0;entryY=0.5;entryDx=0;entryDy=0;" edge="1" parent="1" source="pTKMKGgpl9S-luBTWyot-81" target="pTKMKGgpl9S-luBTWyot-84">
          <mxGeometry relative="1" as="geometry">
            <Array as="points">
              <mxPoint x="580" y="490" />
              <mxPoint x="580" y="230" />
            </Array>
          </mxGeometry>
        </mxCell>
        <mxCell id="pTKMKGgpl9S-luBTWyot-81" value="&lt;font style=&quot;font-size: 16px&quot;&gt;ry_angle&lt;br&gt;2*16384*3&lt;/font&gt;" style="rounded=0;whiteSpace=wrap;html=1;fillColor=#dae8fc;strokeColor=#6c8ebf;" vertex="1" parent="1">
          <mxGeometry x="480" y="470" width="90" height="40" as="geometry" />
        </mxCell>
        <mxCell id="pTKMKGgpl9S-luBTWyot-92" style="edgeStyle=orthogonalEdgeStyle;rounded=0;orthogonalLoop=1;jettySize=auto;html=1;entryX=0;entryY=0.5;entryDx=0;entryDy=0;" edge="1" parent="1" source="pTKMKGgpl9S-luBTWyot-84" target="pTKMKGgpl9S-luBTWyot-86">
          <mxGeometry relative="1" as="geometry" />
        </mxCell>
        <mxCell id="pTKMKGgpl9S-luBTWyot-84" value="&lt;font style=&quot;font-size: 16px&quot;&gt;proposals&lt;br&gt;2*16384*3&lt;/font&gt;" style="rounded=0;whiteSpace=wrap;html=1;fillColor=#dae8fc;strokeColor=#6c8ebf;" vertex="1" parent="1">
          <mxGeometry x="600" y="210" width="90" height="40" as="geometry" />
        </mxCell>
        <mxCell id="pTKMKGgpl9S-luBTWyot-94" style="edgeStyle=orthogonalEdgeStyle;rounded=0;orthogonalLoop=1;jettySize=auto;html=1;exitX=1;exitY=0.5;exitDx=0;exitDy=0;entryX=0;entryY=0.5;entryDx=0;entryDy=0;" edge="1" parent="1" source="pTKMKGgpl9S-luBTWyot-85" target="pTKMKGgpl9S-luBTWyot-86">
          <mxGeometry relative="1" as="geometry">
            <Array as="points">
              <mxPoint x="700" y="120" />
              <mxPoint x="700" y="230" />
            </Array>
          </mxGeometry>
        </mxCell>
        <mxCell id="pTKMKGgpl9S-luBTWyot-85" value="&lt;font style=&quot;font-size: 16px&quot;&gt;分类结果&lt;br&gt;2*16384*1&lt;/font&gt;" style="rounded=0;whiteSpace=wrap;html=1;fillColor=#dae8fc;strokeColor=#6c8ebf;" vertex="1" parent="1">
          <mxGeometry x="600" y="100" width="90" height="40" as="geometry" />
        </mxCell>
        <mxCell id="pTKMKGgpl9S-luBTWyot-99" style="edgeStyle=orthogonalEdgeStyle;rounded=0;orthogonalLoop=1;jettySize=auto;html=1;entryX=0;entryY=0.5;entryDx=0;entryDy=0;" edge="1" parent="1" source="pTKMKGgpl9S-luBTWyot-86" target="pTKMKGgpl9S-luBTWyot-87">
          <mxGeometry relative="1" as="geometry">
            <Array as="points">
              <mxPoint x="820" y="230" />
              <mxPoint x="820" y="180" />
            </Array>
          </mxGeometry>
        </mxCell>
        <mxCell id="pTKMKGgpl9S-luBTWyot-100" style="edgeStyle=orthogonalEdgeStyle;rounded=0;orthogonalLoop=1;jettySize=auto;html=1;entryX=0;entryY=0.5;entryDx=0;entryDy=0;" edge="1" parent="1" source="pTKMKGgpl9S-luBTWyot-86" target="pTKMKGgpl9S-luBTWyot-88">
          <mxGeometry relative="1" as="geometry">
            <Array as="points">
              <mxPoint x="820" y="230" />
              <mxPoint x="820" y="280" />
            </Array>
          </mxGeometry>
        </mxCell>
        <mxCell id="pTKMKGgpl9S-luBTWyot-86" value="&lt;font style=&quot;font-size: 16px&quot;&gt;Distance&lt;br&gt;Proposal&lt;/font&gt;" style="rounded=0;whiteSpace=wrap;html=1;fillColor=#dae8fc;strokeColor=#6c8ebf;" vertex="1" parent="1">
          <mxGeometry x="720" y="210" width="90" height="40" as="geometry" />
        </mxCell>
        <mxCell id="pTKMKGgpl9S-luBTWyot-87" value="&lt;font style=&quot;font-size: 16px&quot;&gt;roi_score&lt;br&gt;2*512&lt;/font&gt;" style="rounded=0;whiteSpace=wrap;html=1;fillColor=#dae8fc;strokeColor=#6c8ebf;" vertex="1" parent="1">
          <mxGeometry x="840" y="160" width="90" height="40" as="geometry" />
        </mxCell>
        <mxCell id="pTKMKGgpl9S-luBTWyot-88" value="&lt;span style=&quot;font-size: 16px&quot;&gt;roi&lt;/span&gt;&lt;br style=&quot;font-size: 16px&quot;&gt;&lt;span style=&quot;font-size: 16px&quot;&gt;2*512*7&lt;/span&gt;" style="rounded=0;whiteSpace=wrap;html=1;fillColor=#ffe6cc;strokeColor=#d79b00;" vertex="1" parent="1">
          <mxGeometry x="840" y="260" width="90" height="40" as="geometry" />
        </mxCell>
      </root>
    </mxGraphModel>
  </diagram>
  <diagram id="E2qhJawjPOMMG6X1RCWB" name="Page-2">
    <mxGraphModel dx="1022" dy="481" grid="1" gridSize="10" guides="1" tooltips="1" connect="1" arrows="1" fold="1" page="1" pageScale="1" pageWidth="827" pageHeight="1169" math="0" shadow="0">
      <root>
        <mxCell id="FSXG_WDKgZr7q54gQL4v-0" />
        <mxCell id="FSXG_WDKgZr7q54gQL4v-1" parent="FSXG_WDKgZr7q54gQL4v-0" />
        <mxCell id="O1z6oLSiUiHNp6_klBIX-6" style="edgeStyle=orthogonalEdgeStyle;rounded=0;orthogonalLoop=1;jettySize=auto;html=1;exitX=1;exitY=0.5;exitDx=0;exitDy=0;entryX=0;entryY=0.5;entryDx=0;entryDy=0;" edge="1" parent="FSXG_WDKgZr7q54gQL4v-1" source="O1z6oLSiUiHNp6_klBIX-0" target="O1z6oLSiUiHNp6_klBIX-3">
          <mxGeometry relative="1" as="geometry">
            <Array as="points">
              <mxPoint x="210" y="110" />
              <mxPoint x="210" y="170" />
            </Array>
          </mxGeometry>
        </mxCell>
        <mxCell id="O1z6oLSiUiHNp6_klBIX-0" value="&lt;font style=&quot;font-size: 16px&quot;&gt;merged_feature&lt;br&gt;128*128*512&lt;/font&gt;" style="rounded=1;whiteSpace=wrap;html=1;fillColor=#dae8fc;strokeColor=#6c8ebf;" vertex="1" parent="FSXG_WDKgZr7q54gQL4v-1">
          <mxGeometry x="60" y="80" width="120" height="60" as="geometry" />
        </mxCell>
        <mxCell id="O1z6oLSiUiHNp6_klBIX-7" style="edgeStyle=orthogonalEdgeStyle;rounded=0;orthogonalLoop=1;jettySize=auto;html=1;exitX=1;exitY=0.5;exitDx=0;exitDy=0;" edge="1" parent="FSXG_WDKgZr7q54gQL4v-1" source="O1z6oLSiUiHNp6_klBIX-2" target="O1z6oLSiUiHNp6_klBIX-3">
          <mxGeometry relative="1" as="geometry">
            <Array as="points">
              <mxPoint x="210" y="220" />
              <mxPoint x="210" y="170" />
            </Array>
          </mxGeometry>
        </mxCell>
        <mxCell id="O1z6oLSiUiHNp6_klBIX-2" value="&lt;font style=&quot;font-size: 16px&quot;&gt;pts_sample&lt;br&gt;(2*64)*512*3&lt;/font&gt;" style="rounded=1;whiteSpace=wrap;html=1;fillColor=#dae8fc;strokeColor=#6c8ebf;" vertex="1" parent="FSXG_WDKgZr7q54gQL4v-1">
          <mxGeometry x="60" y="190" width="120" height="60" as="geometry" />
        </mxCell>
        <mxCell id="O1z6oLSiUiHNp6_klBIX-9" style="edgeStyle=orthogonalEdgeStyle;rounded=0;orthogonalLoop=1;jettySize=auto;html=1;entryX=0;entryY=0.5;entryDx=0;entryDy=0;" edge="1" parent="FSXG_WDKgZr7q54gQL4v-1" source="O1z6oLSiUiHNp6_klBIX-3" target="O1z6oLSiUiHNp6_klBIX-4">
          <mxGeometry relative="1" as="geometry" />
        </mxCell>
        <mxCell id="O1z6oLSiUiHNp6_klBIX-10" style="edgeStyle=orthogonalEdgeStyle;rounded=0;orthogonalLoop=1;jettySize=auto;html=1;exitX=1;exitY=0.5;exitDx=0;exitDy=0;entryX=0;entryY=0.5;entryDx=0;entryDy=0;" edge="1" parent="FSXG_WDKgZr7q54gQL4v-1" source="O1z6oLSiUiHNp6_klBIX-3" target="O1z6oLSiUiHNp6_klBIX-5">
          <mxGeometry relative="1" as="geometry" />
        </mxCell>
        <mxCell id="O1z6oLSiUiHNp6_klBIX-3" value="&lt;font style=&quot;font-size: 16px&quot;&gt;merged_feature&lt;br&gt;128*512*1&lt;/font&gt;" style="rounded=1;whiteSpace=wrap;html=1;fillColor=#dae8fc;strokeColor=#6c8ebf;" vertex="1" parent="FSXG_WDKgZr7q54gQL4v-1">
          <mxGeometry x="275" y="140" width="120" height="60" as="geometry" />
        </mxCell>
        <mxCell id="O1z6oLSiUiHNp6_klBIX-4" value="&lt;span style=&quot;font-size: 16px&quot;&gt;rcnn_cls&lt;br&gt;128*1&lt;br&gt;&lt;/span&gt;" style="rounded=1;whiteSpace=wrap;html=1;fillColor=#dae8fc;strokeColor=#6c8ebf;" vertex="1" parent="FSXG_WDKgZr7q54gQL4v-1">
          <mxGeometry x="460" y="80" width="120" height="60" as="geometry" />
        </mxCell>
        <mxCell id="O1z6oLSiUiHNp6_klBIX-5" value="&lt;span style=&quot;font-size: 16px&quot;&gt;rcnn_reg&lt;br&gt;128*46&lt;br&gt;&lt;/span&gt;" style="rounded=1;whiteSpace=wrap;html=1;fillColor=#dae8fc;strokeColor=#6c8ebf;" vertex="1" parent="FSXG_WDKgZr7q54gQL4v-1">
          <mxGeometry x="460" y="200" width="120" height="60" as="geometry" />
        </mxCell>
        <mxCell id="O1z6oLSiUiHNp6_klBIX-8" value="&lt;font style=&quot;font-size: 14px&quot;&gt;SA*3&lt;/font&gt;" style="text;html=1;align=center;verticalAlign=middle;resizable=0;points=[];autosize=1;strokeWidth=2;" vertex="1" parent="FSXG_WDKgZr7q54gQL4v-1">
          <mxGeometry x="225" y="140" width="50" height="20" as="geometry" />
        </mxCell>
      </root>
    </mxGraphModel>
  </diagram>
  <diagram id="A9kigWDe3hqI_4Rw-XlI" name="Page-3">
    <mxGraphModel dx="1022" dy="481" grid="1" gridSize="10" guides="1" tooltips="1" connect="1" arrows="1" fold="1" page="1" pageScale="1" pageWidth="827" pageHeight="1169" math="0" shadow="0">
      <root>
        <mxCell id="-qpDtu6QVJOC4iRme3_Y-0" />
        <mxCell id="-qpDtu6QVJOC4iRme3_Y-1" parent="-qpDtu6QVJOC4iRme3_Y-0" />
        <mxCell id="-qpDtu6QVJOC4iRme3_Y-10" style="edgeStyle=orthogonalEdgeStyle;rounded=0;orthogonalLoop=1;jettySize=auto;html=1;exitX=1;exitY=0.5;exitDx=0;exitDy=0;entryX=0;entryY=0.5;entryDx=0;entryDy=0;" edge="1" parent="-qpDtu6QVJOC4iRme3_Y-1" source="-qpDtu6QVJOC4iRme3_Y-2" target="-qpDtu6QVJOC4iRme3_Y-4">
          <mxGeometry relative="1" as="geometry">
            <Array as="points">
              <mxPoint x="160" y="120" />
              <mxPoint x="160" y="200" />
            </Array>
          </mxGeometry>
        </mxCell>
        <mxCell id="-qpDtu6QVJOC4iRme3_Y-2" value="&lt;font style=&quot;font-size: 16px&quot;&gt;feature_simple&lt;br&gt;(2*64)*512*130&lt;/font&gt;" style="rounded=1;whiteSpace=wrap;html=1;strokeWidth=2;fillColor=#dae8fc;strokeColor=#6c8ebf;" vertex="1" parent="-qpDtu6QVJOC4iRme3_Y-1">
          <mxGeometry x="30" y="90" width="120" height="60" as="geometry" />
        </mxCell>
        <mxCell id="-qpDtu6QVJOC4iRme3_Y-12" style="edgeStyle=orthogonalEdgeStyle;rounded=0;orthogonalLoop=1;jettySize=auto;html=1;exitX=1;exitY=0.5;exitDx=0;exitDy=0;entryX=0;entryY=0.5;entryDx=0;entryDy=0;" edge="1" parent="-qpDtu6QVJOC4iRme3_Y-1" source="-qpDtu6QVJOC4iRme3_Y-3" target="-qpDtu6QVJOC4iRme3_Y-4">
          <mxGeometry relative="1" as="geometry">
            <Array as="points">
              <mxPoint x="160" y="274" />
              <mxPoint x="160" y="200" />
            </Array>
          </mxGeometry>
        </mxCell>
        <mxCell id="-qpDtu6QVJOC4iRme3_Y-3" value="&lt;font style=&quot;font-size: 16px&quot;&gt;pts_simple&lt;br&gt;(2*64)*512*3&lt;/font&gt;" style="rounded=1;whiteSpace=wrap;html=1;strokeWidth=2;fillColor=#dae8fc;strokeColor=#6c8ebf;" vertex="1" parent="-qpDtu6QVJOC4iRme3_Y-1">
          <mxGeometry x="30" y="244" width="120" height="60" as="geometry" />
        </mxCell>
        <mxCell id="-qpDtu6QVJOC4iRme3_Y-13" style="edgeStyle=orthogonalEdgeStyle;rounded=0;orthogonalLoop=1;jettySize=auto;html=1;entryX=0;entryY=0.5;entryDx=0;entryDy=0;" edge="1" parent="-qpDtu6QVJOC4iRme3_Y-1" source="-qpDtu6QVJOC4iRme3_Y-4" target="-qpDtu6QVJOC4iRme3_Y-5">
          <mxGeometry relative="1" as="geometry">
            <Array as="points">
              <mxPoint x="330" y="200" />
              <mxPoint x="330" y="120" />
            </Array>
          </mxGeometry>
        </mxCell>
        <mxCell id="-qpDtu6QVJOC4iRme3_Y-14" style="edgeStyle=orthogonalEdgeStyle;rounded=0;orthogonalLoop=1;jettySize=auto;html=1;" edge="1" parent="-qpDtu6QVJOC4iRme3_Y-1" source="-qpDtu6QVJOC4iRme3_Y-4" target="-qpDtu6QVJOC4iRme3_Y-6">
          <mxGeometry relative="1" as="geometry">
            <Array as="points">
              <mxPoint x="330" y="200" />
              <mxPoint x="330" y="260" />
            </Array>
          </mxGeometry>
        </mxCell>
        <mxCell id="-qpDtu6QVJOC4iRme3_Y-4" value="&lt;font style=&quot;font-size: 16px&quot;&gt;pts_features&lt;br&gt;128*512*133&lt;br&gt;&lt;/font&gt;" style="rounded=1;whiteSpace=wrap;html=1;strokeWidth=2;fillColor=#dae8fc;strokeColor=#6c8ebf;" vertex="1" parent="-qpDtu6QVJOC4iRme3_Y-1">
          <mxGeometry x="200" y="170" width="120" height="60" as="geometry" />
        </mxCell>
        <mxCell id="-qpDtu6QVJOC4iRme3_Y-16" style="edgeStyle=orthogonalEdgeStyle;rounded=0;orthogonalLoop=1;jettySize=auto;html=1;entryX=0;entryY=0.5;entryDx=0;entryDy=0;" edge="1" parent="-qpDtu6QVJOC4iRme3_Y-1" source="-qpDtu6QVJOC4iRme3_Y-5" target="-qpDtu6QVJOC4iRme3_Y-7">
          <mxGeometry relative="1" as="geometry" />
        </mxCell>
        <mxCell id="-qpDtu6QVJOC4iRme3_Y-5" value="&lt;font style=&quot;font-size: 16px&quot;&gt;xyz_features&lt;br&gt;128*512*5&lt;br&gt;&lt;/font&gt;" style="rounded=1;whiteSpace=wrap;html=1;strokeWidth=2;fillColor=#dae8fc;strokeColor=#6c8ebf;" vertex="1" parent="-qpDtu6QVJOC4iRme3_Y-1">
          <mxGeometry x="380" y="90" width="120" height="60" as="geometry" />
        </mxCell>
        <mxCell id="-qpDtu6QVJOC4iRme3_Y-29" style="edgeStyle=orthogonalEdgeStyle;rounded=0;orthogonalLoop=1;jettySize=auto;html=1;" edge="1" parent="-qpDtu6QVJOC4iRme3_Y-1" source="-qpDtu6QVJOC4iRme3_Y-6" target="-qpDtu6QVJOC4iRme3_Y-8">
          <mxGeometry relative="1" as="geometry" />
        </mxCell>
        <mxCell id="-qpDtu6QVJOC4iRme3_Y-6" value="&lt;font style=&quot;font-size: 16px&quot;&gt;rpn_features&lt;br&gt;128*128*512*1&lt;br&gt;&lt;/font&gt;" style="rounded=1;whiteSpace=wrap;html=1;strokeWidth=2;fillColor=#dae8fc;strokeColor=#6c8ebf;" vertex="1" parent="-qpDtu6QVJOC4iRme3_Y-1">
          <mxGeometry x="380" y="230" width="120" height="60" as="geometry" />
        </mxCell>
        <mxCell id="-qpDtu6QVJOC4iRme3_Y-26" style="edgeStyle=orthogonalEdgeStyle;rounded=0;orthogonalLoop=1;jettySize=auto;html=1;exitX=0.5;exitY=1;exitDx=0;exitDy=0;entryX=0.5;entryY=0;entryDx=0;entryDy=0;" edge="1" parent="-qpDtu6QVJOC4iRme3_Y-1" source="-qpDtu6QVJOC4iRme3_Y-7" target="-qpDtu6QVJOC4iRme3_Y-8">
          <mxGeometry relative="1" as="geometry" />
        </mxCell>
        <mxCell id="-qpDtu6QVJOC4iRme3_Y-7" value="&lt;font style=&quot;font-size: 16px&quot;&gt;xyz_features&lt;br&gt;128*128*512*1&lt;br&gt;&lt;/font&gt;" style="rounded=1;whiteSpace=wrap;html=1;strokeWidth=2;fillColor=#dae8fc;strokeColor=#6c8ebf;" vertex="1" parent="-qpDtu6QVJOC4iRme3_Y-1">
          <mxGeometry x="596" y="90" width="120" height="60" as="geometry" />
        </mxCell>
        <mxCell id="-qpDtu6QVJOC4iRme3_Y-18" style="edgeStyle=orthogonalEdgeStyle;rounded=0;orthogonalLoop=1;jettySize=auto;html=1;exitX=1;exitY=0.5;exitDx=0;exitDy=0;entryX=0;entryY=0.5;entryDx=0;entryDy=0;" edge="1" parent="-qpDtu6QVJOC4iRme3_Y-1" source="-qpDtu6QVJOC4iRme3_Y-8" target="-qpDtu6QVJOC4iRme3_Y-9">
          <mxGeometry relative="1" as="geometry" />
        </mxCell>
        <mxCell id="-qpDtu6QVJOC4iRme3_Y-8" value="&lt;font style=&quot;font-size: 16px&quot;&gt;merged_features&lt;br&gt;128*256*512*1&lt;br&gt;&lt;/font&gt;" style="rounded=1;whiteSpace=wrap;html=1;strokeWidth=2;fillColor=#dae8fc;strokeColor=#6c8ebf;" vertex="1" parent="-qpDtu6QVJOC4iRme3_Y-1">
          <mxGeometry x="591" y="304" width="130" height="60" as="geometry" />
        </mxCell>
        <mxCell id="-qpDtu6QVJOC4iRme3_Y-9" value="&lt;font style=&quot;font-size: 16px&quot;&gt;merged_features&lt;br&gt;128*128*512&lt;br&gt;&lt;/font&gt;" style="rounded=1;whiteSpace=wrap;html=1;strokeWidth=2;fillColor=#dae8fc;strokeColor=#6c8ebf;" vertex="1" parent="-qpDtu6QVJOC4iRme3_Y-1">
          <mxGeometry x="858" y="304" width="124" height="60" as="geometry" />
        </mxCell>
        <mxCell id="-qpDtu6QVJOC4iRme3_Y-20" value="&lt;font style=&quot;font-size: 14px&quot;&gt;[0:5]&lt;/font&gt;" style="text;html=1;align=center;verticalAlign=middle;resizable=0;points=[];autosize=1;" vertex="1" parent="-qpDtu6QVJOC4iRme3_Y-1">
          <mxGeometry x="330" y="100" width="40" height="20" as="geometry" />
        </mxCell>
        <mxCell id="-qpDtu6QVJOC4iRme3_Y-21" value="&lt;font style=&quot;font-size: 14px&quot;&gt;[5:133]&lt;/font&gt;" style="text;html=1;align=center;verticalAlign=middle;resizable=0;points=[];autosize=1;" vertex="1" parent="-qpDtu6QVJOC4iRme3_Y-1">
          <mxGeometry x="325" y="240" width="60" height="20" as="geometry" />
        </mxCell>
        <mxCell id="-qpDtu6QVJOC4iRme3_Y-22" value="&lt;font style=&quot;font-size: 14px&quot;&gt;xyz_up_layer&lt;/font&gt;" style="text;html=1;align=center;verticalAlign=middle;resizable=0;points=[];autosize=1;" vertex="1" parent="-qpDtu6QVJOC4iRme3_Y-1">
          <mxGeometry x="496" y="99" width="100" height="20" as="geometry" />
        </mxCell>
        <mxCell id="-qpDtu6QVJOC4iRme3_Y-23" value="&lt;font style=&quot;font-size: 14px&quot;&gt;(MLP)&lt;/font&gt;" style="text;html=1;align=center;verticalAlign=middle;resizable=0;points=[];autosize=1;" vertex="1" parent="-qpDtu6QVJOC4iRme3_Y-1">
          <mxGeometry x="514" y="120" width="50" height="20" as="geometry" />
        </mxCell>
        <mxCell id="-qpDtu6QVJOC4iRme3_Y-24" value="&lt;font style=&quot;font-size: 14px&quot;&gt;Merged_down_layer&lt;/font&gt;" style="text;html=1;align=center;verticalAlign=middle;resizable=0;points=[];autosize=1;" vertex="1" parent="-qpDtu6QVJOC4iRme3_Y-1">
          <mxGeometry x="718" y="314" width="140" height="20" as="geometry" />
        </mxCell>
        <mxCell id="-qpDtu6QVJOC4iRme3_Y-25" value="&lt;font style=&quot;font-size: 14px&quot;&gt;（MLP）&lt;/font&gt;" style="text;html=1;align=center;verticalAlign=middle;resizable=0;points=[];autosize=1;" vertex="1" parent="-qpDtu6QVJOC4iRme3_Y-1">
          <mxGeometry x="746" y="334" width="70" height="20" as="geometry" />
        </mxCell>
        <mxCell id="-qpDtu6QVJOC4iRme3_Y-31" value="&lt;font style=&quot;font-size: 14px&quot;&gt;cat&lt;/font&gt;" style="text;html=1;align=center;verticalAlign=middle;resizable=0;points=[];autosize=1;" vertex="1" parent="-qpDtu6QVJOC4iRme3_Y-1">
          <mxGeometry x="165" y="180" width="30" height="20" as="geometry" />
        </mxCell>
        <mxCell id="-qpDtu6QVJOC4iRme3_Y-32" value="&lt;font style=&quot;font-size: 14px&quot;&gt;cat&lt;/font&gt;" style="text;html=1;align=center;verticalAlign=middle;resizable=0;points=[];autosize=1;" vertex="1" parent="-qpDtu6QVJOC4iRme3_Y-1">
          <mxGeometry x="655" y="190" width="30" height="20" as="geometry" />
        </mxCell>
      </root>
    </mxGraphModel>
  </diagram>
</mxfile>
